<svg width="177" height="53" viewBox="0 0 177 53" fill="none" xmlns="http://www.w3.org/2000/svg">
<path d="M26.4026 52.8084C19.4495 52.8084 12.862 50.0779 7.84897 45.1209C2.7865 40.1177 0 33.4676 0 26.4026C0 19.3375 2.74697 12.3054 7.73698 7.42408C12.6315 2.63499 19.2618 0 26.4026 0C40.9609 0 52.8051 11.8443 52.8051 26.4026C52.8051 33.4545 50.0582 40.0847 45.0715 45.0747C40.0847 50.0615 33.4545 52.8084 26.4026 52.8084ZM26.3993 0.98812C11.9101 0.98812 0.984827 11.9134 0.984827 26.4026C0.984827 33.2008 3.66922 39.6006 8.54065 44.4193C13.366 49.1919 19.7097 51.8203 26.3993 51.8203C33.1877 51.8203 39.5676 49.1787 44.3699 44.3765C49.1689 39.5775 51.8137 33.1942 51.8137 26.4059C51.8137 12.391 40.4108 0.991413 26.3993 0.991413V0.98812Z" fill="#2563EB"/>
<path d="M14.6756 8.49219H13.6875V44.9637H14.6756V8.49219Z" fill="#2563EB"/>
<path d="M23.9061 17.8281H22.918V44.9586H23.9061V17.8281Z" fill="#2563EB"/>
<path d="M39.1092 8.49219H38.1211V15.4551H39.1092V8.49219Z" fill="#2563EB"/>
<path d="M29.7498 23H28.7617V28.4445H29.7498V23Z" fill="#2563EB"/>
<path d="M39.1092 23H38.1211V28.4445H39.1092V23Z" fill="#2563EB"/>
<path d="M37.482 21.375H30.3906V22.3631H37.482V21.375Z" fill="#2563EB"/>
<path d="M37.4771 15.8125H24.6875V16.8006H37.4771V15.8125Z" fill="#2563EB"/>
<path d="M37.4788 6.5H15.582V7.48812H37.4788V6.5Z" fill="#2563EB"/>
<path d="M37.482 29.0859H30.3906V30.0741H37.482V29.0859Z" fill="#2563EB"/>
<path d="M29.7498 36.0391H28.7617V44.9651H29.7498V36.0391Z" fill="#2563EB"/>
<path d="M39.1092 36.0391H38.1211V44.9651H39.1092V36.0391Z" fill="#2563EB"/>
<path d="M37.482 34.4062H30.3906V35.3944H37.482V34.4062Z" fill="#2563EB"/>
<path d="M37.482 45.6016H30.3906V46.5897H37.482V45.6016Z" fill="#2563EB"/>
<path d="M22.0147 45.6016H15.582V46.5897H22.0147V45.6016Z" fill="#2563EB"/>
<path d="M67.0119 11.2197V16.9706H72.4861V17.7611H67.0119V23.2748L67.7431 24.1443V24.2431H64.6602V24.1443L65.3321 23.2748V11.773L64.6602 10.9035V10.8047H72.8616L73.6323 13.1762H73.3951L71.0237 11.2197H67.0119Z" fill="#2563EB"/>
<path d="M81.9831 22.9169V24.241H80.7776C79.908 24.241 79.3942 23.6876 79.3151 23.0355C78.7223 23.7469 77.9713 24.3793 76.7856 24.3793C75.4022 24.3793 74.4931 23.5295 74.4931 22.2252C74.4931 21.079 75.2836 20.3676 76.6867 19.7549C77.6353 19.3399 78.4851 19.0632 79.2756 18.8459V17.3439C79.2756 16.2175 78.4851 15.7827 77.1808 15.7827C76.746 15.7827 76.3508 15.8222 76.0346 15.9013V17.7194H74.4141C74.5129 16.8301 75.165 16.0989 75.8962 15.6641C76.6275 15.2293 77.4772 14.9922 78.3665 14.9922C79.9278 14.9922 80.7578 15.7629 80.7578 17.3044V22.9169H81.9831ZM79.2756 22.7983V19.2213C78.5049 19.4387 77.7539 19.7154 77.0425 20.0316C76.2915 20.3676 75.9358 20.8221 75.9358 21.6521C75.9358 22.6995 76.5484 23.411 77.576 23.411C78.3863 23.411 78.8408 23.1738 79.2756 22.7983Z" fill="#2563EB"/>
<path d="M82.9531 20.402C82.9531 18.9594 83.546 17.6353 84.4748 16.7065C85.4037 15.7776 86.5104 15.0859 87.7159 15.0859H89.7514V16.4891H86.5104C85.0479 16.4891 84.1982 16.9436 84.1982 19.236C84.1982 21.8249 85.542 23.2083 87.6961 23.2083C88.704 23.2083 89.4154 22.9316 89.8897 22.5956L90.0281 22.7537C89.4747 23.6431 88.4471 24.4336 86.8858 24.4336C84.5736 24.4336 82.9531 22.7735 82.9531 20.402Z" fill="#2563EB"/>
<path d="M99.609 24.1596V24.2387H98.0478L97.7316 22.9146C97.0992 23.6063 96.1111 24.4363 94.5301 24.4363C92.9491 24.4363 91.8226 23.4087 91.8226 21.5312V16.3535L91.2891 15.3061V15.1875H93.3048V21.3138C93.3048 22.7763 94.1546 23.4087 95.5182 23.4087C96.5261 23.4087 97.2573 23.0134 97.6723 22.6577V16.3535L97.1387 15.3061V15.1875H99.1545V22.5391L99.609 24.1596Z" fill="#2563EB"/>
<path d="M101.227 10.5441V10.4453L103.42 10.1094V23.3502L104.01 24.1407V24.2395H101.342V24.1407L101.935 23.3502V11.552L101.227 10.5441Z" fill="#2563EB"/>
<path d="M107.672 13.0781H107.83V15.1927H110.636V15.9041H107.83V21.7933C107.83 22.9 108.383 23.4139 109.49 23.4139C110.004 23.4139 110.419 23.2953 110.735 23.0977L110.873 23.2558C110.439 23.8882 109.707 24.4415 108.62 24.4415C107.435 24.4415 106.348 23.8289 106.348 22.1095V15.9041H105.004V15.746L107.672 13.0781Z" fill="#2563EB"/>
<path d="M119.542 22.9169V24.241H118.336C117.467 24.241 116.953 23.6876 116.874 23.0355C116.281 23.7469 115.53 24.3793 114.344 24.3793C112.961 24.3793 112.052 23.5295 112.052 22.2252C112.052 21.079 112.842 20.3676 114.245 19.7549C115.194 19.3399 116.044 19.0632 116.834 18.8459V17.3439C116.834 16.2175 116.044 15.7827 114.739 15.7827C114.305 15.7827 113.909 15.8222 113.593 15.9013V17.7194H111.973C112.071 16.8301 112.724 16.0989 113.455 15.6641C114.186 15.2293 115.036 14.9922 115.925 14.9922C117.486 14.9922 118.316 15.7629 118.316 17.3044V22.9169H119.542ZM116.834 22.7983V19.2213C116.063 19.4387 115.313 19.7154 114.601 20.0316C113.85 20.3676 113.494 20.8221 113.494 21.6521C113.494 22.6995 114.107 23.411 115.135 23.411C115.945 23.411 116.399 23.1738 116.834 22.7983Z" fill="#2563EB"/>
<path d="M129.05 24.1604V24.2395H127.488L127.152 22.8759C126.461 23.785 125.532 24.4371 124.168 24.4371C121.975 24.4371 120.473 22.6387 120.473 20.0499C120.473 17.1646 122.271 15.1686 125.235 15.1686H127.113V11.552L126.401 10.5441V10.4453L128.595 10.1094V22.5399L129.046 24.1604H129.05ZM127.113 22.5992V16.216L124.761 15.5836C122.864 15.7614 121.876 17.2041 121.876 19.4175C121.876 21.9273 123.121 23.4095 125.038 23.4095C125.947 23.4095 126.639 23.0735 127.113 22.5992Z" fill="#2563EB"/>
<path d="M72.8191 41.8167V41.8957H71.2578L70.9219 40.5321C70.2302 41.4412 69.3014 42.0934 67.9378 42.0934C65.7441 42.0934 64.2422 40.295 64.2422 37.7061C64.2422 34.8208 66.0406 32.8248 69.0049 32.8248H70.8824V29.2083L70.1709 28.2004V28.1016L72.3645 27.7656V40.1962L72.8158 41.8167H72.8191ZM70.8824 40.2555V33.8722L68.5306 33.2398C66.6334 33.4177 65.6453 34.8603 65.6453 37.0737C65.6453 39.5835 66.8903 41.0657 68.8073 41.0657C69.7164 41.0657 70.4081 40.7298 70.8824 40.2555Z" fill="#2563EB"/>
<path d="M82.2634 40.0989C81.7694 41.087 80.6824 42.0949 78.7259 42.0949C76.1371 42.0949 74.4375 40.0396 74.4375 37.51C74.4375 34.763 76.0383 32.6484 78.5678 32.6484C80.5836 32.6484 82.0263 33.9528 82.2437 36.1661H75.8011C75.7813 36.3638 75.7813 36.5614 75.7813 36.7788C75.7813 39.4072 77.1845 40.9091 79.4176 40.9091C80.6231 40.9091 81.552 40.4743 82.1053 39.9605L82.2634 40.0989ZM75.8439 35.7907H80.6462C80.4683 34.1306 79.7569 33.0437 78.3538 33.0437C77.0297 33.0437 76.1008 34.0713 75.8439 35.7907Z" fill="#2563EB"/>
<path d="M88.5859 28.5519V28.4531H91.6096V28.5519L90.9377 29.4215V40.9232L91.6096 41.7927V41.8916H88.5859V41.7927L89.2579 40.9232V29.4215L88.5859 28.5519Z" fill="#2563EB"/>
<path d="M102.065 41.7984V41.8972H99.3975V41.7984L99.9903 41.0079V35.7907C99.9903 34.3282 99.101 33.6761 97.7374 33.6761C96.7098 33.6761 95.939 34.0911 95.5438 34.3875V41.0079L96.1367 41.7984V41.8972H93.4688V41.7984L94.0616 41.0079V34.012L93.528 32.9646V32.8461H95.5438V34.1306C96.1367 33.4389 97.2038 32.6484 98.7255 32.6484C100.465 32.6484 101.473 33.7551 101.473 35.514V41.0079L102.065 41.7984Z" fill="#2563EB"/>
<path d="M105.914 29.462V32.8413H108.463V33.5528H105.914V41.0032L106.546 41.7937V41.8925H103.839V41.7937L104.431 41.0032V33.5528H102.949V32.8413H104.431V32.3275C104.431 31.1813 104.827 30.1932 105.597 29.3236C106.368 28.4541 107.178 28.0391 108.127 28.0391H108.977V29.462H105.914Z" fill="#2563EB"/>
<path d="M108.984 37.3914C108.984 34.5852 110.803 32.6484 113.391 32.6484C115.98 32.6484 117.759 34.5852 117.759 37.3519C117.759 40.1582 115.941 42.0949 113.352 42.0949C110.763 42.0949 108.984 40.1582 108.984 37.3914ZM116.079 37.3717C116.079 34.4666 115.13 33.0239 113.372 33.0239C111.613 33.0239 110.664 34.4271 110.664 37.3717C110.664 40.2767 111.613 41.7194 113.372 41.7194C115.13 41.7194 116.079 40.3162 116.079 37.3717Z" fill="#2563EB"/>
<path d="M124.519 32.8438V34.3259H122.721C122.049 34.3259 121.614 34.4445 121.298 34.7607V41.0056L121.93 41.7961V41.8949H119.223V41.7961L119.816 41.0056V34.0097L119.282 32.9623V32.8438H121.298V34.484C121.831 33.6738 122.701 32.8438 123.827 32.8438H124.519Z" fill="#2563EB"/>
<path d="M139.985 41.7984V41.8972H137.317V41.7984L137.91 41.0079V35.8104C137.91 34.3282 137.12 33.6761 135.736 33.6761C134.788 33.6761 134.076 34.0516 133.681 34.4271V41.0079L134.274 41.7984V41.8972H131.606V41.7984L132.199 41.0079V35.6523C132.199 34.3085 131.408 33.6761 130.045 33.6761C129.096 33.6761 128.365 34.0318 127.97 34.3678V41.0079L128.562 41.7984V41.8972H125.895V41.7984L126.487 41.0079V34.012L125.954 32.9646V32.8461H127.97V34.0911C128.562 33.4192 129.59 32.6484 131.072 32.6484C132.554 32.6484 133.305 33.4389 133.622 34.2097C134.215 33.4587 135.262 32.6484 136.744 32.6484C138.444 32.6484 139.392 33.7551 139.392 35.4942V41.0079L139.985 41.7984Z" fill="#2563EB"/>
<path d="M148.999 40.5693V41.8934H147.793C146.924 41.8934 146.41 41.34 146.331 40.6879C145.738 41.3993 144.987 42.0317 143.801 42.0317C142.418 42.0317 141.509 41.1819 141.509 39.8776C141.509 38.7314 142.299 38.02 143.702 37.4073C144.651 36.9923 145.501 36.7156 146.291 36.4982V34.9963C146.291 33.8698 145.501 33.4351 144.196 33.4351C143.762 33.4351 143.366 33.4746 143.05 33.5537V35.3718H141.43C141.528 34.4825 142.181 33.7513 142.912 33.3165C143.643 32.8817 144.493 32.6446 145.382 32.6446C146.943 32.6446 147.773 33.4153 147.773 34.9568V40.5693H148.999ZM146.291 40.4507V36.8737C145.521 37.0911 144.77 37.3678 144.058 37.684C143.307 38.02 142.951 38.4745 142.951 39.3045C142.951 40.3519 143.564 41.0634 144.592 41.0634C145.402 41.0634 145.856 40.8262 146.291 40.4507ZM143.465 31.3007L143.347 31.1229L146.607 28.6328L147.596 29.9174L143.465 31.3007Z" fill="#2563EB"/>
<path d="M152.027 30.7266H152.185V32.8411H154.992V33.5526H152.185V39.4418C152.185 40.5485 152.739 41.0623 153.845 41.0623C154.359 41.0623 154.774 40.9437 155.09 40.7461L155.229 40.9042C154.794 41.5366 154.063 42.0899 152.976 42.0899C151.79 42.0899 150.703 41.4773 150.703 39.758V33.5526H149.359V33.3945L152.027 30.7266Z" fill="#2563EB"/>
<path d="M156.316 41.7987L156.909 41.0082V34.0123L156.376 32.9649V32.8463H158.391V41.0082L158.984 41.7987V41.8975H156.316V41.7987ZM158.494 30.6132H156.834V28.9531H158.494V30.6132Z" fill="#2563EB"/>
<path d="M160.344 38.0583C160.344 36.6156 160.937 35.2915 161.865 34.3627C162.794 33.4339 163.901 32.7422 165.106 32.7422H167.142V34.1453H163.901C162.439 34.1453 161.589 34.5999 161.589 36.8923C161.589 39.4812 162.933 40.8645 165.087 40.8645C166.095 40.8645 166.806 40.5879 167.28 40.2519L167.419 40.41C166.865 41.2993 165.838 42.0898 164.276 42.0898C161.964 42.0898 160.344 40.4298 160.344 38.0583Z" fill="#2563EB"/>
<path d="M176.307 40.5732V41.8972H175.102C174.232 41.8972 173.718 41.3439 173.639 40.6917C173.046 41.4032 172.295 42.0356 171.11 42.0356C169.726 42.0356 168.817 41.1858 168.817 39.8815C168.817 38.7353 169.608 38.0238 171.011 37.4112C171.96 36.9962 172.809 36.7195 173.6 36.5021V35.0002C173.6 33.8737 172.809 33.4389 171.505 33.4389C171.07 33.4389 170.675 33.4785 170.359 33.5575V35.3756H168.738C168.837 34.4863 169.489 33.7551 170.22 33.3204C170.952 32.8856 171.801 32.6484 172.691 32.6484C174.252 32.6484 175.082 33.4192 175.082 34.9606V40.5732H176.307ZM173.6 40.4546V36.8776C172.829 37.095 172.078 37.3717 171.367 37.6879C170.616 38.0238 170.26 38.4783 170.26 39.3084C170.26 40.3558 170.873 41.0672 171.9 41.0672C172.711 41.0672 173.165 40.8301 173.6 40.4546Z" fill="#2563EB"/>
</svg>
