<svg width="269" height="53" viewBox="0 0 269 53" fill="none" xmlns="http://www.w3.org/2000/svg">
<path d="M26.4026 52.8084C11.8443 52.8084 0 40.9642 0 26.4059C0 11.8476 11.8443 0 26.4026 0C40.9609 0 52.8051 11.8443 52.8051 26.4026C52.8051 40.9609 40.9609 52.8051 26.4026 52.8051V52.8084ZM26.4026 0.98812C12.3877 0.98812 0.98812 12.391 0.98812 26.4026C0.98812 40.4141 12.391 51.817 26.4026 51.817C40.4141 51.817 51.817 40.4141 51.817 26.4026C51.817 12.391 40.4141 0.98812 26.4026 0.98812Z" fill="#2563EB"/>
<path d="M31.4859 24.5746H30.4978V18.5899L12.3723 18.5833C9.12143 18.5833 6.47656 15.9384 6.47656 12.6875H7.46468C7.46468 15.3949 9.66819 17.5952 12.3723 17.5952L31.4859 17.6018V24.5746Z" fill="#2563EB"/>
<path d="M33.1014 24.5746H32.1133C32.1133 20.7308 35.239 17.6018 39.0861 17.6018L40.43 17.5952C43.1374 17.5952 45.3409 15.3917 45.3409 12.6875H46.329C46.329 15.9384 43.6842 18.5833 40.4333 18.5833L39.0894 18.5899C35.7891 18.5899 33.1047 21.2743 33.1047 24.5746H33.1014Z" fill="#2563EB"/>
<path d="M13.3786 28.0717H8.05594C5.34849 28.0717 3.14828 25.8682 3.14828 23.1641H2.16016C2.16016 26.415 4.80503 29.0598 8.05594 29.0598H13.3786C16.6789 29.0598 19.3633 31.7442 19.3633 35.0446H20.3514C20.3514 31.2008 17.2257 28.0717 13.3819 28.0717H13.3786Z" fill="#2563EB"/>
<path d="M21.9686 35.0367H20.9805V28.0639H44.7546C47.4621 28.0639 49.6623 25.8604 49.6623 23.1562H50.6504C50.6504 26.4072 48.0056 29.052 44.7546 29.052H21.9686V35.0367Z" fill="#2563EB"/>
<path d="M33.1014 46.9183H32.1133C32.1133 43.0745 35.239 39.9455 39.0861 39.9455L40.43 39.9389C43.1374 39.9389 45.3409 37.7354 45.3409 35.0312H46.329C46.329 38.2822 43.6842 40.927 40.4333 40.927L39.0894 40.9336C35.7891 40.9336 33.1047 43.618 33.1047 46.9183H33.1014Z" fill="#2563EB"/>
<path d="M31.4859 46.9183H30.4978V40.9336L12.3723 40.927C9.12143 40.927 6.47656 38.2822 6.47656 35.0312H7.46468C7.46468 37.7387 9.66819 39.9389 12.3723 39.9389L31.4859 39.9455V46.9183Z" fill="#2563EB"/>
<path d="M72.3714 11.4036H68.3596V17.1544H73.8338V17.9449H68.3596V23.4586L69.0908 24.3282V24.427H66.0079V24.3282L66.6798 23.4586V11.9569L66.0079 11.0874V10.9886H74.2093L74.98 13.36H74.7429L72.3714 11.4036Z" fill="#2563EB"/>
<path d="M81.7608 23.1029H82.9861V24.427H81.7806C80.9111 24.427 80.3972 23.8736 80.3182 23.2215C79.7253 23.9329 78.9743 24.5653 77.7886 24.5653C76.4052 24.5653 75.4962 23.7155 75.4962 22.4112C75.4962 21.265 76.2866 20.5536 77.6898 19.9409C78.6384 19.5259 79.4882 19.2492 80.2787 19.0319V17.5299C80.2787 16.4035 79.4882 15.9687 78.1838 15.9687C77.7491 15.9687 77.3538 16.0082 77.0376 16.0873V17.9054H75.4171C75.5159 17.0161 76.1681 16.2849 76.8993 15.8501C77.6305 15.4153 78.4803 15.1782 79.3696 15.1782C80.9308 15.1782 81.7608 15.9489 81.7608 17.4904V23.1029ZM78.5791 23.597C79.3893 23.597 79.8439 23.3598 80.2787 22.9843V19.4073C79.5079 19.6247 78.757 19.9014 78.0455 20.2176C77.2945 20.5536 76.9388 21.0081 76.9388 21.8381C76.9388 22.8855 77.5514 23.597 78.5791 23.597Z" fill="#2563EB"/>
<path d="M87.8599 24.6246C85.5477 24.6246 83.9271 22.9646 83.9271 20.5931C83.9271 19.1504 84.52 17.8264 85.4488 16.8975C86.3777 15.9687 87.4844 15.277 88.6899 15.277H90.7254V16.6801H87.4844C86.0219 16.6801 85.1722 17.1347 85.1722 19.4271C85.1722 22.016 86.516 23.3993 88.6701 23.3993C89.678 23.3993 90.3894 23.1227 90.8637 22.7867L91.0021 22.9448C90.4487 23.8341 89.4211 24.6246 87.8599 24.6246Z" fill="#2563EB"/>
<path d="M100.095 22.7274L100.549 24.3479V24.427H98.9883L98.6721 23.1029C98.0397 23.7946 97.0515 24.6246 95.4705 24.6246C93.85 24.6246 92.7631 23.597 92.7631 21.7195V16.5418L92.2295 15.4944V15.3758H94.2453V21.5022C94.2453 22.9646 95.0951 23.597 96.4587 23.597C97.4665 23.597 98.1978 23.2017 98.6128 22.846V16.5418L98.0792 15.4944V15.3758H100.095V22.7274Z" fill="#2563EB"/>
<path d="M102.897 11.7395L102.185 10.7316V10.6328L104.379 10.2969V23.5377L104.972 24.3282V24.427H102.304V24.3282L102.897 23.5377V11.7395Z" fill="#2563EB"/>
<path d="M105.995 15.9292L108.663 13.2612H108.821V15.3758H111.627V16.0873H108.821V21.9765C108.821 23.0832 109.374 23.597 110.481 23.597C110.995 23.597 111.41 23.4784 111.726 23.2808L111.864 23.4389C111.429 24.0713 110.698 24.6246 109.611 24.6246C108.426 24.6246 107.339 24.012 107.339 22.2927V16.0873H105.995V15.9292Z" fill="#2563EB"/>
<path d="M118.854 23.1029H120.079V24.427H118.874C118.004 24.427 117.49 23.8736 117.411 23.2215C116.818 23.9329 116.067 24.5653 114.882 24.5653C113.498 24.5653 112.589 23.7155 112.589 22.4112C112.589 21.265 113.38 20.5536 114.783 19.9409C115.731 19.5259 116.581 19.2492 117.372 19.0319V17.5299C117.372 16.4035 116.581 15.9687 115.277 15.9687C114.842 15.9687 114.447 16.0082 114.131 16.0873V17.9054H112.51C112.609 17.0161 113.261 16.2849 113.992 15.8501C114.724 15.4153 115.573 15.1782 116.463 15.1782C118.024 15.1782 118.854 15.9489 118.854 17.4904V23.1029ZM115.672 23.597C116.482 23.597 116.937 23.3598 117.372 22.9843V19.4073C116.601 19.6247 115.85 19.9014 115.139 20.2176C114.388 20.5536 114.032 21.0081 114.032 21.8381C114.032 22.8855 114.645 23.597 115.672 23.597Z" fill="#2563EB"/>
<path d="M129.143 22.7274L129.597 24.3479V24.427H128.036L127.7 23.0634C127.008 23.9725 126.079 24.6246 124.716 24.6246C122.522 24.6246 121.02 22.8262 121.02 20.2374C121.02 17.3521 122.819 15.3561 125.783 15.3561H127.66V11.7395L126.949 10.7316V10.6328L129.143 10.2969V22.7274ZM125.585 23.597C126.494 23.597 127.186 23.261 127.66 22.7867V16.4035L125.309 15.7711C123.411 15.9489 122.423 17.3916 122.423 19.605C122.423 22.1148 123.668 23.597 125.585 23.597Z" fill="#2563EB"/>
<path d="M143.347 22.7274L143.801 24.3479V24.427H142.24L141.904 23.0634C141.212 23.9725 140.284 24.6246 138.92 24.6246C136.726 24.6246 135.224 22.8262 135.224 20.2374C135.224 17.3521 137.023 15.3561 139.987 15.3561H141.865V11.7395L141.153 10.7316V10.6328L143.347 10.2969V22.7274ZM139.79 23.597C140.699 23.597 141.39 23.261 141.865 22.7867V16.4035L139.513 15.7711C137.616 15.9489 136.628 17.3916 136.628 19.605C136.628 22.1148 137.873 23.597 139.79 23.597Z" fill="#2563EB"/>
<path d="M153.103 22.4903L153.261 22.6286C152.767 23.6167 151.68 24.6246 149.723 24.6246C147.134 24.6246 145.435 22.5693 145.435 20.0397C145.435 17.2928 147.035 15.1782 149.565 15.1782C151.581 15.1782 153.023 16.4825 153.241 18.6959H146.798C146.779 18.8935 146.779 19.0911 146.779 19.3085C146.779 21.9369 148.182 23.4389 150.415 23.4389C151.62 23.4389 152.549 23.0041 153.103 22.4903ZM149.348 15.5734C148.024 15.5734 147.095 16.6011 146.838 18.3204H151.64C151.462 16.6604 150.751 15.5734 149.348 15.5734Z" fill="#2563EB"/>
<path d="M164.805 24.6246C161.13 24.6246 158.62 21.8776 158.62 17.8659C158.62 13.6762 161.347 10.87 165.26 10.87C166.268 10.87 167.197 10.9886 168.125 10.9886H168.699L169.39 13.3403H169.153L168.185 12.5498C167.216 11.7593 166.485 11.285 165.161 11.285C162.276 11.285 160.418 13.2612 160.418 17.5694C160.418 21.7788 162.157 23.9329 165.24 23.9329C167.216 23.9329 168.639 23.0436 169.39 21.8776L169.667 22.0753C168.975 23.2808 167.394 24.6246 164.805 24.6246Z" fill="#2563EB"/>
<path d="M175.007 24.6246C172.477 24.6246 170.639 22.6879 170.639 19.9212C170.639 17.1149 172.458 15.1782 175.046 15.1782C177.576 15.1782 179.414 17.1149 179.414 19.8816C179.414 22.6879 177.596 24.6246 175.007 24.6246ZM175.027 24.2491C176.805 24.2491 177.734 22.846 177.734 19.9014C177.734 16.9963 176.786 15.5537 175.027 15.5537C173.248 15.5537 172.319 16.9568 172.319 19.9014C172.319 22.8065 173.268 24.2491 175.027 24.2491Z" fill="#2563EB"/>
<path d="M194.427 23.5377L195.02 24.3282V24.427H192.352V24.3282L192.945 23.5377V18.3402C192.945 16.858 192.154 16.2058 190.771 16.2058C189.822 16.2058 189.111 16.5813 188.716 16.9568V23.5377L189.308 24.3282V24.427H186.641V24.3282L187.233 23.5377V18.1821C187.233 16.8382 186.443 16.2058 185.079 16.2058C184.131 16.2058 183.4 16.5616 183.004 16.8975V23.5377L183.597 24.3282V24.427H180.929V24.3282L181.522 23.5377V16.5418L180.988 15.4944V15.3758H183.004V16.6208C183.597 15.9489 184.625 15.1782 186.107 15.1782C187.55 15.1782 188.34 15.9687 188.656 16.7394C189.249 15.9884 190.297 15.1782 191.779 15.1782C193.478 15.1782 194.427 16.2849 194.427 18.024V23.5377Z" fill="#2563EB"/>
<path d="M204.427 22.7274L204.881 24.3479V24.427H203.32L203.004 23.1029C202.371 23.7946 201.383 24.6246 199.802 24.6246C198.182 24.6246 197.095 23.597 197.095 21.7195V16.5418L196.561 15.4944V15.3758H198.577V21.5022C198.577 22.9646 199.427 23.597 200.79 23.597C201.798 23.597 202.529 23.2017 202.944 22.846V16.5418L202.411 15.4944V15.3758H204.427V22.7274Z" fill="#2563EB"/>
<path d="M214.659 23.5377L215.252 24.3282V24.427H212.584V24.3282L213.177 23.5377V18.3204C213.177 16.858 212.287 16.2058 210.924 16.2058C209.896 16.2058 209.125 16.6208 208.73 16.9173V23.5377L209.323 24.3282V24.427H206.655V24.3282L207.248 23.5377V16.5418L206.714 15.4944V15.3758H208.73V16.6604C209.323 15.9687 210.39 15.1782 211.912 15.1782C213.651 15.1782 214.659 16.2849 214.659 18.0437V23.5377Z" fill="#2563EB"/>
<path d="M219 11.4826V13.1427H217.34V11.4826H219ZM216.826 24.427V24.3282L217.419 23.5377V16.5418L216.885 15.4944V15.3758H218.901V23.5377L219.494 24.3282V24.427H216.826Z" fill="#2563EB"/>
<path d="M224.884 24.6246C222.572 24.6246 220.952 22.9646 220.952 20.5931C220.952 19.1504 221.544 17.8264 222.473 16.8975C223.402 15.9687 224.509 15.277 225.714 15.277H227.75V16.6801H224.509C223.046 16.6801 222.197 17.1347 222.197 19.4271C222.197 22.016 223.54 23.3993 225.695 23.3993C226.702 23.3993 227.414 23.1227 227.888 22.7867L228.027 22.9448C227.473 23.8341 226.446 24.6246 224.884 24.6246Z" fill="#2563EB"/>
<path d="M235.46 23.1029H236.685V24.427H235.48C234.61 24.427 234.096 23.8736 234.017 23.2215C233.424 23.9329 232.673 24.5653 231.488 24.5653C230.104 24.5653 229.195 23.7155 229.195 22.4112C229.195 21.265 229.986 20.5536 231.389 19.9409C232.337 19.5259 233.187 19.2492 233.978 19.0319V17.5299C233.978 16.4035 233.187 15.9687 231.883 15.9687C231.448 15.9687 231.053 16.0082 230.737 16.0873V17.9054H229.116C229.215 17.0161 229.867 16.2849 230.598 15.8501C231.33 15.4153 232.179 15.1782 233.069 15.1782C234.63 15.1782 235.46 15.9489 235.46 17.4904V23.1029ZM232.278 23.597C233.088 23.597 233.543 23.3598 233.978 22.9843V19.4073C233.207 19.6247 232.456 19.9014 231.745 20.2176C230.994 20.5536 230.638 21.0081 230.638 21.8381C230.638 22.8855 231.25 23.597 232.278 23.597Z" fill="#2563EB"/>
<path d="M241.559 24.6246C239.247 24.6246 237.626 22.9646 237.626 20.5931C237.626 19.1504 238.219 17.8264 239.148 16.8975C240.077 15.9687 241.183 15.277 242.389 15.277H244.424V16.6801H241.183C239.721 16.6801 238.871 17.1347 238.871 19.4271C238.871 22.016 240.215 23.3993 242.369 23.3993C243.377 23.3993 244.088 23.1227 244.563 22.7867L244.701 22.9448C244.148 23.8341 243.12 24.6246 241.559 24.6246Z" fill="#2563EB"/>
<path d="M248.122 11.4826V13.1427H246.462V11.4826H248.122ZM245.948 24.427V24.3282L246.541 23.5377V16.5418L246.008 15.4944V15.3758H248.023V23.5377L248.616 24.3282V24.427H245.948Z" fill="#2563EB"/>
<path d="M256.181 11.1664L257.169 12.451L253.039 13.8343L252.92 13.6565L256.181 11.1664ZM254.481 24.6246C251.952 24.6246 250.114 22.6879 250.114 19.9212C250.114 17.1149 251.932 15.1782 254.521 15.1782C257.05 15.1782 258.888 17.1149 258.888 19.8816C258.888 22.6879 257.07 24.6246 254.481 24.6246ZM254.501 24.2491C256.28 24.2491 257.208 22.846 257.208 19.9014C257.208 16.9963 256.26 15.5537 254.501 15.5537C252.722 15.5537 251.793 16.9568 251.793 19.9014C251.793 22.8065 252.742 24.2491 254.501 24.2491Z" fill="#2563EB"/>
<path d="M268.407 23.5377L269 24.3282V24.427H266.332V24.3282L266.925 23.5377V18.3204C266.925 16.858 266.036 16.2058 264.672 16.2058C263.644 16.2058 262.874 16.6208 262.478 16.9173V23.5377L263.071 24.3282V24.427H260.403V24.3282L260.996 23.5377V16.5418L260.463 15.4944V15.3758H262.478V16.6604C263.071 15.9687 264.138 15.1782 265.66 15.1782C267.399 15.1782 268.407 16.2849 268.407 18.0437V23.5377Z" fill="#2563EB"/>
<path d="M71.6402 33.0307H73.4781V33.1296L72.6085 34.3746L69.2884 42.7736C68.4189 44.9672 67.4505 46.3111 66.0869 46.3111H65.5336V44.7894H67.8063C68.2015 44.2558 68.5375 43.5443 68.8734 42.7143L69.0513 42.2598L65.6917 33.9793L65 33.1296V33.0307H67.411V33.1296L67.2134 33.8805L69.822 40.3033L72.1935 34.3153L71.6402 33.1296V33.0307Z" fill="#2563EB"/>
<path d="M83.7978 28.6435C87.6514 28.6435 90.1612 31.3905 90.1612 35.3034C90.1612 39.2757 87.6119 42.0819 83.7978 42.0819H78.205V41.9831L78.8769 41.1136V29.6118L78.205 28.7423V28.6435H83.7978ZM83.6594 41.6669C86.6633 41.6669 88.3233 39.3942 88.3233 35.3825C88.3233 31.3312 86.6633 29.0585 83.6594 29.0585H80.5567V41.6669H83.6594Z" fill="#2563EB"/>
<path d="M96.0345 42.2795C93.505 42.2795 91.667 40.3428 91.667 37.5761C91.667 34.7698 93.4852 32.8331 96.0741 32.8331C98.6037 32.8331 100.442 34.7698 100.442 37.5366C100.442 40.3428 98.6234 42.2795 96.0345 42.2795ZM96.0543 41.9041C97.8329 41.9041 98.7618 40.5009 98.7618 37.5563C98.7618 34.6513 97.8132 33.2086 96.0543 33.2086C94.2757 33.2086 93.3469 34.6117 93.3469 37.5563C93.3469 40.4614 94.2955 41.9041 96.0543 41.9041Z" fill="#2563EB"/>
<path d="M105.827 42.2795C103.515 42.2795 101.895 40.6195 101.895 38.248C101.895 36.8054 102.488 35.4813 103.416 34.5524C104.345 33.6236 105.452 32.9319 106.657 32.9319H108.693V34.3351H105.452C103.99 34.3351 103.14 34.7896 103.14 37.082C103.14 39.6709 104.484 41.0543 106.638 41.0543C107.646 41.0543 108.357 40.7776 108.831 40.4416L108.97 40.5997C108.416 41.489 107.389 42.2795 105.827 42.2795Z" fill="#2563EB"/>
<path d="M118.063 40.3824L118.517 42.0029V42.0819H116.956L116.64 40.7578C116.007 41.4495 115.019 42.2795 113.438 42.2795C111.818 42.2795 110.731 41.2519 110.731 39.3745V34.1967L110.197 33.1493V33.0307H112.213V39.1571C112.213 40.6195 113.063 41.2519 114.426 41.2519C115.434 41.2519 116.165 40.8567 116.58 40.5009V34.1967L116.047 33.1493V33.0307H118.063V40.3824Z" fill="#2563EB"/>
<path d="M133.789 41.1926L134.382 41.9831V42.0819H131.714V41.9831L132.307 41.1926V35.9951C132.307 34.5129 131.516 33.8608 130.133 33.8608C129.184 33.8608 128.473 34.2362 128.077 34.6117V41.1926L128.67 41.9831V42.0819H126.002V41.9831L126.595 41.1926V35.837C126.595 34.4932 125.805 33.8608 124.441 33.8608C123.493 33.8608 122.761 34.2165 122.366 34.5524V41.1926L122.959 41.9831V42.0819H120.291V41.9831L120.884 41.1926V34.1967L120.35 33.1493V33.0307H122.366V34.2758C122.959 33.6039 123.987 32.8331 125.469 32.8331C126.911 32.8331 127.702 33.6236 128.018 34.3943C128.611 33.6434 129.658 32.8331 131.141 32.8331C132.84 32.8331 133.789 33.9398 133.789 35.6789V41.1926Z" fill="#2563EB"/>
<path d="M143.491 40.1452L143.65 40.2835C143.156 41.2717 142.069 42.2795 140.112 42.2795C137.523 42.2795 135.824 40.2243 135.824 37.6947C135.824 34.9477 137.424 32.8331 139.954 32.8331C141.97 32.8331 143.412 34.1374 143.63 36.3508H137.187C137.168 36.5484 137.168 36.7461 137.168 36.9635C137.168 39.5919 138.571 41.0938 140.804 41.0938C142.009 41.0938 142.938 40.659 143.491 40.1452ZM139.737 33.2284C138.413 33.2284 137.484 34.256 137.227 35.9753H142.029C141.851 34.3153 141.14 33.2284 139.737 33.2284Z" fill="#2563EB"/>
<path d="M152.959 41.1926L153.552 41.9831V42.0819H150.884V41.9831L151.477 41.1926V35.9753C151.477 34.5129 150.588 33.8608 149.224 33.8608C148.196 33.8608 147.426 34.2758 147.031 34.5722V41.1926L147.623 41.9831V42.0819H144.955V41.9831L145.548 41.1926V34.1967L145.015 33.1493V33.0307H147.031V34.3153C147.623 33.6236 148.691 32.8331 150.212 32.8331C151.951 32.8331 152.959 33.9398 152.959 35.6987V41.1926Z" fill="#2563EB"/>
<path d="M154.474 33.5841L157.142 30.9162H157.3V33.0307H160.107V33.7422H157.3V39.6314C157.3 40.7381 157.854 41.2519 158.961 41.2519C159.474 41.2519 159.889 41.1333 160.206 40.9357L160.344 41.0938C159.909 41.7262 159.178 42.2795 158.091 42.2795C156.905 42.2795 155.818 41.6669 155.818 39.9476V33.7422H154.474V33.5841Z" fill="#2563EB"/>
<path d="M167.334 40.7578H168.559V42.0819H167.353C166.484 42.0819 165.97 41.5286 165.891 40.8764C165.298 41.5879 164.547 42.2203 163.361 42.2203C161.978 42.2203 161.069 41.3705 161.069 40.0662C161.069 38.9199 161.859 38.2085 163.263 37.5959C164.211 37.1808 165.061 36.9042 165.851 36.6868V35.1848C165.851 34.0584 165.061 33.6236 163.757 33.6236C163.322 33.6236 162.927 33.6631 162.61 33.7422V35.5603H160.99C161.089 34.671 161.741 33.9398 162.472 33.505C163.203 33.0703 164.053 32.8331 164.942 32.8331C166.504 32.8331 167.334 33.6039 167.334 35.1453V40.7578ZM164.152 41.2519C164.962 41.2519 165.417 41.0148 165.851 40.6393V37.0623C165.081 37.2797 164.33 37.5563 163.618 37.8725C162.867 38.2085 162.512 38.663 162.512 39.493C162.512 40.5405 163.124 41.2519 164.152 41.2519Z" fill="#2563EB"/>
<path d="M173.433 42.2795C171.12 42.2795 169.5 40.6195 169.5 38.248C169.5 36.8054 170.093 35.4813 171.022 34.5524C171.95 33.6236 173.057 32.9319 174.263 32.9319H176.298V34.3351H173.057C171.595 34.3351 170.745 34.7896 170.745 37.082C170.745 39.6709 172.089 41.0543 174.243 41.0543C175.251 41.0543 175.962 40.7776 176.436 40.4416L176.575 40.5997C176.021 41.489 174.994 42.2795 173.433 42.2795Z" fill="#2563EB"/>
<path d="M179.996 29.1375V30.7976H178.336V29.1375H179.996ZM177.822 42.0819V41.9831L178.415 41.1926V34.1967L177.881 33.1493V33.0307H179.897V41.1926L180.49 41.9831V42.0819H177.822Z" fill="#2563EB"/>
<path d="M188.054 28.8214L189.043 30.1059L184.912 31.4893L184.794 31.3114L188.054 28.8214ZM186.355 42.2795C183.825 42.2795 181.987 40.3428 181.987 37.5761C181.987 34.7698 183.806 32.8331 186.394 32.8331C188.924 32.8331 190.762 34.7698 190.762 37.5366C190.762 40.3428 188.944 42.2795 186.355 42.2795ZM186.375 41.9041C188.153 41.9041 189.082 40.5009 189.082 37.5563C189.082 34.6513 188.134 33.2086 186.375 33.2086C184.596 33.2086 183.667 34.6117 183.667 37.5563C183.667 40.4614 184.616 41.9041 186.375 41.9041Z" fill="#2563EB"/>
<path d="M200.281 41.1926L200.874 41.9831V42.0819H198.206V41.9831L198.799 41.1926V35.9753C198.799 34.5129 197.909 33.8608 196.546 33.8608C195.518 33.8608 194.747 34.2758 194.352 34.5722V41.1926L194.945 41.9831V42.0819H192.277V41.9831L192.87 41.1926V34.1967L192.336 33.1493V33.0307H194.352V34.3153C194.945 33.6236 196.012 32.8331 197.534 32.8331C199.273 32.8331 200.281 33.9398 200.281 35.6987V41.1926Z" fill="#2563EB"/>
</svg>
